<?xml version="1.0" standalone="no"?>
<!DOCTYPE svg PUBLIC "-//W3C//DTD SVG 20010904//EN"
 "http://www.w3.org/TR/2001/REC-SVG-20010904/DTD/svg10.dtd">
<svg version="1.0" xmlns="http://www.w3.org/2000/svg"
 width="500.000000pt" height="500.000000pt" viewBox="0 0 500.000000 500.000000"
 preserveAspectRatio="xMidYMid meet">
<metadata>
Created by potrace 1.14, written by Peter Selinger 2001-2017
</metadata>
<g transform="translate(0.000000,500.000000) scale(0.100000,-0.100000)"
fill="#000000" stroke="none">
<path d="M2375 4670 c-77 -110 -142 -197 -146 -192 -3 4 -37 91 -74 195 -37
103 -72 187 -77 187 -5 0 -50 -14 -99 -32 -94 -32 -101 -39 -112 -104 -4 -24
-53 -250 -60 -277 -2 -6 -82 45 -97 63 -3 3 -47 38 -99 78 -62 48 -100 71
-110 67 -9 -4 -53 -20 -98 -37 -46 -16 -83 -34 -83 -39 0 -5 15 -50 34 -101
19 -51 51 -139 71 -195 l37 -102 80 29 c45 16 83 32 85 34 2 2 -16 58 -40 125
-24 66 -42 121 -39 121 2 0 52 -40 111 -88 58 -49 111 -91 117 -95 11 -6 134
30 134 39 0 2 12 63 26 136 14 73 26 140 27 150 2 28 11 10 56 -114 24 -65 45
-118 46 -118 2 0 38 13 79 29 41 16 76 27 78 25 2 -1 45 -5 95 -8 l91 -5 18
36 19 35 133 -6 c73 -3 136 -7 141 -10 5 -3 14 -19 21 -36 10 -25 18 -30 49
-31 108 -3 136 -10 292 -73 249 -98 325 -113 408 -80 45 18 80 64 105 141 31
92 1 161 -97 224 -51 33 -374 169 -402 169 -6 0 -21 -28 -34 -62 -13 -35 -47
-121 -74 -191 l-50 -128 -37 63 c-20 35 -77 131 -125 213 -49 83 -90 152 -92
154 -2 3 -41 6 -86 8 l-83 4 -139 -201z m285 -57 c0 -2 -31 -2 -70 0 -38 1
-70 4 -70 7 0 3 16 32 36 64 l37 58 33 -63 c19 -35 34 -64 34 -66z m684 -15
c43 -22 76 -61 76 -91 0 -69 -50 -120 -112 -113 -30 4 -157 46 -162 54 -3 6
30 100 64 179 l10 23 51 -20 c29 -12 61 -26 73 -32z"/>
<path d="M1063 4398 c-40 -39 -73 -78 -73 -86 0 -9 16 -87 35 -175 20 -88 34
-161 32 -163 -4 -4 -302 61 -329 71 -10 4 -42 -20 -93 -70 l-78 -76 29 -30
c16 -17 82 -85 147 -151 65 -66 117 -121 115 -123 -2 -2 -19 -7 -38 -10 -19
-3 -57 -10 -85 -15 -27 -5 -68 -12 -90 -15 -91 -12 -257 -43 -262 -49 -8 -8
-63 -138 -63 -149 0 -7 86 -135 228 -341 l54 -78 -83 6 c-46 3 -120 9 -164 11
-44 3 -99 8 -122 10 -39 5 -42 3 -47 -23 -5 -26 -10 -124 -7 -148 1 -9 41 -14
148 -17 20 -1 21 -5 17 -46 -2 -26 -5 -77 -7 -114 l-2 -68 -88 6 c-48 4 -87 3
-88 -2 -10 -98 -13 -162 -7 -168 3 -3 32 -7 64 -10 128 -9 212 -15 287 -20
l77 -6 0 53 c1 29 3 70 6 91 3 20 2 37 -3 38 -98 6 -159 12 -162 15 -5 4 -2
86 4 134 2 14 4 39 4 56 l1 31 86 -1 c100 -1 91 -12 97 121 3 60 11 95 35 150
27 62 29 73 16 84 -30 25 -36 49 -21 82 8 18 32 74 53 125 36 87 40 92 69 92
16 0 35 4 41 8 13 8 75 149 71 162 -1 4 24 33 56 64 31 31 57 60 57 64 0 4
-38 46 -85 92 -84 84 -101 108 -68 95 10 -3 76 -21 146 -40 l128 -34 48 47 49
47 -19 75 c-10 41 -27 110 -38 154 l-19 78 97 -96 96 -96 63 63 63 64 -149
151 c-82 84 -151 152 -153 152 -2 0 -37 -32 -76 -72z m-484 -1045 c-12 -26
-24 -57 -28 -67 -7 -17 -13 -12 -49 36 -23 30 -42 57 -42 61 0 5 21 9 102 15
l38 3 -21 -48z"/>
<path d="M2280 4190 c-236 -33 -520 -138 -704 -263 -345 -232 -565 -518 -694
-903 -58 -172 -80 -313 -80 -514 0 -187 8 -261 44 -410 123 -500 456 -913 919
-1135 107 -51 294 -117 365 -129 19 -3 46 -8 60 -11 144 -33 488 -31 649 4
447 97 832 355 1076 721 141 211 223 419 269 683 23 130 16 463 -13 596 -75
352 -233 643 -481 890 -219 218 -528 383 -851 452 -107 23 -445 34 -559 19z
m112 -55 c-39 -20 -92 -55 -119 -79 -39 -35 -52 -42 -70 -35 -32 12 -130 28
-185 31 -27 2 -48 6 -48 9 0 21 216 86 315 96 33 3 62 7 64 9 2 2 29 4 59 4
l55 0 -71 -35z m297 0 c82 -21 201 -65 201 -75 0 -4 -17 -10 -39 -14 -52 -8
-182 -52 -261 -89 -63 -29 -67 -29 -133 -18 -37 6 -86 20 -107 31 -22 11 -45
20 -52 20 -7 0 -19 4 -27 9 -31 20 105 111 214 143 66 19 110 18 204 -7z m263
-41 c36 -16 50 -34 27 -34 -5 0 -52 18 -104 40 -52 22 -98 40 -104 40 -5 0
-12 4 -15 9 -7 11 144 -31 196 -55z m141 -70 c42 -22 174 -111 181 -123 3 -5
-6 -11 -20 -14 -18 -3 -37 4 -67 27 -23 17 -70 51 -104 75 -35 24 -63 45 -63
47 0 10 45 2 73 -12z m-985 -10 c55 -9 51 -8 80 -18 21 -7 31 -25 15 -27 -5
-1 -42 -2 -83 -4 -116 -4 -195 -14 -291 -35 -49 -11 -92 -20 -95 -20 -22 0
132 102 163 108 44 9 143 8 211 -4z m906 -19 c71 -43 156 -104 156 -113 0 -4
-19 -15 -43 -24 -23 -10 -61 -36 -84 -59 l-43 -41 -92 40 c-107 45 -294 108
-333 111 -20 2 14 21 95 53 73 30 120 43 215 62 49 9 75 4 129 -29z m335 -59
c36 -24 76 -54 89 -68 l23 -25 -59 19 c-33 10 -77 34 -98 52 -22 18 -60 47
-86 65 -27 17 -48 34 -48 36 0 12 124 -43 179 -79z m-1564 56 c-84 -72 -133
-106 -189 -132 -37 -16 -71 -30 -74 -30 -13 0 73 74 126 107 63 41 169 83 137
55z m490 -22 c17 -8 16 -9 -7 -7 -15 2 -30 6 -34 10 -10 10 17 8 41 -3z m-105
-35 c0 -1 -13 -32 -30 -68 -31 -69 -67 -197 -72 -258 -3 -28 -18 -53 -77 -117
-100 -111 -120 -116 -240 -68 -78 32 -130 46 -211 60 -14 3 -53 5 -87 5 l-62
1 27 51 c53 98 211 292 261 318 33 18 225 61 308 70 73 7 183 11 183 6z m179
-10 c31 -3 67 -14 79 -24 l23 -17 -83 -56 c-46 -31 -127 -95 -180 -142 -69
-61 -98 -81 -98 -68 0 54 68 254 101 296 20 26 26 26 158 11z m371 -84 c142
-48 260 -100 260 -115 0 -7 -4 -16 -9 -21 -5 -6 -17 -37 -26 -70 -10 -33 -20
-62 -21 -64 -2 -2 -25 17 -51 42 -81 76 -187 161 -271 218 -45 30 -81 57 -82
60 0 11 75 -9 200 -50z m-160 -17 c98 -61 130 -85 219 -164 142 -124 139 -120
136 -168 -1 -24 -4 -44 -6 -46 -2 -1 -49 3 -104 9 -97 12 -526 13 -572 2 -12
-3 -53 -9 -91 -12 l-68 -7 3 58 c2 56 4 60 55 107 107 99 322 263 348 266 3 1
39 -20 80 -45z m694 -7 c39 -34 206 -225 214 -247 2 -5 -18 -18 -44 -29 -43
-19 -49 -20 -68 -6 -37 27 -193 132 -202 136 -25 11 -125 72 -129 79 -12 19
136 111 171 106 7 -1 33 -19 58 -39z m209 -87 c64 -66 117 -124 117 -128 0 -4
-18 -13 -40 -18 l-39 -11 -59 76 c-33 42 -90 107 -127 145 l-66 69 48 -7 c45
-6 54 -12 166 -126z m-1894 63 c-57 -61 -103 -122 -159 -216 -29 -48 -55 -86
-56 -84 -2 2 6 34 18 72 19 67 67 166 92 192 10 10 124 72 136 73 2 0 -12 -17
-31 -37z m1916 3 c16 -9 46 -43 67 -78 37 -62 52 -102 23 -63 -9 11 -50 55
-92 98 -75 76 -75 83 2 43z m-2035 0 c0 -2 -8 -10 -17 -17 -16 -13 -17 -12 -4
4 13 16 21 21 21 13z m2224 -133 c25 -22 46 -43 46 -45 0 -1 -19 -4 -43 -6
l-42 -2 -33 66 -32 66 29 -18 c16 -11 49 -38 75 -61z m-2299 -12 c-14 -34 -32
-85 -39 -114 -13 -51 -14 -52 -73 -72 -65 -23 -136 -62 -170 -95 -13 -11 -23
-17 -23 -12 0 15 109 164 158 217 47 50 163 147 169 141 2 -2 -7 -32 -22 -65z
m1678 48 c53 -27 287 -180 287 -188 0 -3 -45 -30 -99 -58 l-100 -52 -45 13
c-32 10 -59 29 -93 66 -26 28 -51 57 -55 64 -12 21 40 176 59 176 2 0 23 -10
46 -21z m735 -145 c32 -39 35 -82 10 -143 l-13 -33 -60 83 c-33 46 -66 93 -73
106 -13 23 -12 23 47 23 56 0 61 -2 89 -36z m-172 8 c21 -33 71 -276 59 -290
-1 -1 -13 19 -26 45 -13 27 -48 90 -77 142 -29 51 -52 94 -50 96 3 3 64 22 78
24 3 1 10 -7 16 -17z m-93 -74 c19 -29 52 -88 75 -132 l42 -78 -118 113 c-64
62 -116 115 -114 118 2 6 60 29 75 30 4 1 22 -23 40 -51z m-1465 -5 c-3 -44
-5 -47 -36 -55 -60 -16 -63 -6 -14 49 26 28 48 52 50 52 1 1 1 -20 0 -46z
m948 -50 c-2 -3 -20 -1 -39 2 -31 6 -34 9 -32 38 2 18 3 34 4 37 1 3 17 -13
36 -34 19 -22 33 -41 31 -43z m401 25 c80 -68 213 -203 204 -206 -5 -2 -34 8
-63 22 -88 41 -316 116 -353 116 -13 0 -16 3 -9 10 12 12 164 90 175 90 5 0
25 -14 46 -32z m486 -45 c41 -61 117 -203 117 -217 0 -3 -12 -1 -26 4 -14 6
-43 10 -64 10 -37 0 -40 2 -79 71 l-41 71 23 64 c12 35 23 64 24 64 1 0 22
-30 46 -67z m-2273 33 c84 -22 170 -56 170 -67 0 -5 -6 -9 -14 -9 -16 0 -189
-55 -221 -70 -11 -5 -45 -19 -75 -31 -30 -13 -79 -35 -107 -50 -32 -16 -53
-22 -54 -15 -7 77 6 158 36 216 l27 52 91 -5 c51 -3 117 -12 147 -21z m2106
-40 l42 -63 -31 -56 c-16 -32 -31 -56 -32 -55 -2 2 -5 35 -9 73 -7 75 -14 119
-22 148 -11 35 12 15 52 -47z m-2416 17 c-1 -16 -9 -50 -20 -78 -10 -27 -31
-87 -46 -133 -28 -81 -30 -84 -99 -136 -81 -62 -104 -83 -162 -150 l-43 -49 0
35 c0 56 27 197 52 270 33 97 101 172 208 226 97 50 110 52 110 15z m1475 13
c55 -5 107 -12 115 -16 9 -5 17 -23 18 -42 1 -18 4 -49 7 -68 l5 -35 -127 -85
c-71 -46 -170 -116 -221 -155 -52 -38 -112 -83 -134 -100 l-40 -30 -31 40
c-41 52 -168 179 -235 236 l-53 44 -6 95 -6 96 43 2 c24 2 46 5 50 7 3 2 49 7
100 10 52 4 96 8 97 9 6 5 330 -1 418 -8z m236 -29 c20 -3 49 -26 49 -37 0
-11 -112 -81 -119 -75 -7 7 -19 108 -14 117 3 6 29 5 84 -5z m-960 -34 c0 -21
2 -60 5 -87 4 -46 3 -48 -13 -33 -10 8 -49 35 -86 60 -61 40 -66 45 -51 58 14
12 87 33 132 38 7 0 12 -13 13 -36z m1044 9 c-3 -3 -11 0 -18 7 -9 10 -8 11 6
5 10 -3 15 -9 12 -12z m165 -33 c124 -37 165 -52 268 -97 110 -48 129 -62 85
-63 -15 0 -35 -2 -43 -4 -8 -2 -31 -7 -50 -10 -19 -3 -81 -17 -138 -31 -57
-13 -105 -24 -106 -24 -2 0 -16 19 -31 43 -16 23 -54 76 -86 118 -80 107 -64
118 101 68z m-1432 -44 c-118 -156 -275 -432 -353 -617 -15 -38 -29 -68 -30
-68 -1 0 -16 7 -32 15 -28 14 -33 24 -52 108 -11 50 -23 110 -26 132 -3 22 -7
49 -10 60 -2 11 -7 56 -10 100 -4 44 -8 86 -11 93 -2 7 5 21 16 32 57 57 486
219 521 197 16 -10 15 -14 -13 -52z m1269 18 c41 -53 145 -205 141 -208 -9 -9
-229 -72 -232 -66 -7 11 -55 170 -60 194 -3 20 5 29 57 60 71 42 75 43 94 20z
m-1168 -15 c20 -12 59 -39 87 -59 46 -34 52 -43 58 -86 11 -74 33 -156 77
-291 23 -68 37 -127 33 -131 -5 -4 -54 -27 -109 -51 -55 -23 -176 -80 -270
-126 l-170 -83 -25 23 c-19 17 -115 88 -138 101 -3 3 50 128 91 215 69 144
149 276 292 481 24 35 28 35 74 7z m1884 -50 l26 -46 -62 -4 c-34 -2 -64 -3
-66 -1 -2 1 11 27 29 58 18 31 36 53 40 48 4 -4 19 -29 33 -55z m-2550 -93
c-10 -7 -19 -12 -20 -11 -1 1 5 27 15 56 l17 55 3 -44 c2 -32 -1 -46 -15 -56z
m1677 28 c7 -32 20 -80 30 -106 14 -35 15 -49 7 -53 -7 -2 -73 -24 -147 -48
-74 -24 -191 -65 -260 -91 -116 -43 -125 -45 -137 -29 -7 10 -13 21 -13 25 0
16 479 359 501 359 3 0 12 -26 19 -57z m-665 -175 c58 -59 105 -111 105 -117
0 -5 -19 -24 -42 -42 -24 -18 -60 -48 -81 -66 -21 -19 -42 -31 -47 -28 -9 6
-78 206 -86 251 -3 16 -9 43 -14 59 -5 17 -12 50 -15 74 l-6 43 40 -33 c22
-19 88 -82 146 -141z m1616 97 c36 -74 36 -75 10 -54 -14 11 -58 42 -98 68
-40 27 -69 51 -66 55 4 3 31 6 62 6 l56 0 36 -75z m110 49 c15 -7 30 -27 36
-47 11 -37 2 -66 -35 -115 -18 -23 -18 -23 -68 83 l-50 106 46 -7 c25 -4 57
-12 71 -20z m-362 -6 c-13 -25 -96 -134 -140 -183 -14 -16 -40 -46 -56 -65
l-31 -34 -21 43 c-12 24 -40 72 -62 107 -21 35 -39 68 -39 73 0 8 44 23 65 22
2 0 19 5 37 10 18 5 49 12 68 15 19 3 64 11 100 19 95 19 93 19 79 -7z m26
-85 c-7 -102 -11 -136 -37 -270 -21 -111 -22 -113 -61 -138 -21 -15 -40 -25
-42 -23 -1 2 -25 50 -52 108 l-49 105 73 85 c41 47 95 113 121 147 26 34 48
63 50 63 1 0 0 -35 -3 -77z m-2380 -9 c6 -86 30 -238 51 -327 9 -37 15 -70 12
-72 -2 -2 -27 2 -56 10 -64 16 -55 15 -98 15 -19 0 -33 3 -31 8 3 4 8 48 12
97 6 75 22 170 52 301 4 18 42 47 51 39 1 -1 5 -33 7 -71z m2626 -53 l54 -50
-33 -33 c-32 -31 -34 -32 -45 -14 -7 10 -39 60 -72 110 -33 50 -64 97 -69 105
-14 22 108 -65 165 -118z m-168 -51 c46 -167 48 -151 -30 -203 -37 -25 -69
-44 -70 -43 -2 1 1 27 7 57 5 30 12 68 15 84 17 98 23 144 25 215 l1 45 13
-30 c7 -16 24 -73 39 -125z m-408 10 l65 -114 -87 -88 c-62 -62 -90 -84 -99
-77 -39 32 -204 322 -191 335 11 11 233 71 239 65 5 -4 37 -58 73 -121z m484
0 c28 -46 51 -87 51 -90 0 -4 -16 -20 -35 -34 -31 -24 -35 -25 -35 -8 0 17
-49 200 -66 247 -12 33 29 -21 85 -115z m-2645 3 c-19 -101 -33 -211 -34 -275
0 -11 -8 -18 -20 -18 -31 0 -87 -26 -130 -60 -21 -16 -40 -30 -43 -30 -5 0
-16 83 -22 172 -3 57 23 103 106 187 41 41 158 141 165 141 0 0 -9 -53 -22
-117z m2916 -56 c7 -38 10 -70 8 -72 -2 -2 -25 23 -50 57 l-47 60 27 41 26 40
13 -29 c6 -16 17 -60 23 -97z m-1052 13 c23 -49 70 -131 104 -181 l61 -92 -79
-76 c-92 -90 -335 -301 -346 -301 -3 0 -10 10 -13 23 -24 78 -180 357 -267
474 -44 60 -49 53 72 98 74 28 410 143 420 144 3 0 24 -40 48 -89z m-2140 -26
c-1 -42 -8 -84 -14 -93 -10 -13 -11 -7 -8 29 3 25 6 54 9 65 2 11 4 32 4 48 1
15 4 27 7 27 3 0 4 -34 2 -76z m3110 -79 c16 -49 40 -129 52 -177 20 -75 21
-91 10 -118 -7 -17 -15 -29 -17 -26 -3 2 -22 57 -44 122 -22 64 -53 146 -70
181 l-31 65 28 29 c15 16 31 26 35 22 5 -5 21 -48 37 -98z m65 -8 c32 -53 35
-63 31 -119 -2 -34 -6 -63 -8 -65 -1 -2 -11 27 -21 64 -10 38 -29 99 -42 138
-27 80 -15 74 40 -18z m-1645 28 c-2 -2 -37 -17 -78 -34 -77 -32 -77 -27 0 32
41 32 46 34 63 19 9 -8 16 -16 15 -17z m1490 -62 c43 -94 58 -135 87 -237 29
-103 26 -114 -47 -164 -37 -25 -105 -55 -109 -49 -1 1 -3 43 -4 92 -2 91 -12
222 -19 262 -20 103 -20 109 16 136 18 15 36 27 39 27 3 0 20 -30 37 -67z
m-450 -72 c18 -40 32 -77 32 -81 0 -5 -35 -27 -77 -50 l-77 -41 -53 58 c-29
32 -52 62 -50 66 1 5 38 46 82 92 l79 84 16 -27 c9 -15 30 -60 48 -101z m-988
64 c62 -84 142 -219 209 -352 73 -147 78 -161 54 -170 -10 -3 -36 -14 -59 -24
-22 -10 -64 -27 -92 -38 l-51 -20 -48 67 c-77 106 -128 192 -197 329 -91 183
-93 164 16 207 51 21 100 42 108 46 8 5 16 9 17 9 1 1 21 -24 43 -54z m1310
-7 c0 -7 5 -42 10 -78 6 -36 13 -132 16 -214 l7 -149 -69 6 c-116 10 -129 18
-154 95 l-22 67 27 95 28 95 71 47 c78 51 86 54 86 36z m-2886 -68 c6 -67 14
-117 20 -136 3 -6 -4 -24 -14 -39 l-18 -27 -6 48 c-13 98 -15 176 -4 200 6 13
12 23 14 22 1 -2 5 -32 8 -68z m-61 35 c-3 -9 -8 -14 -10 -11 -3 3 -2 9 2 15
9 16 15 13 8 -4z m1429 -153 c37 -75 78 -155 91 -177 40 -66 100 -158 131
-198 16 -21 26 -40 23 -43 -8 -8 -476 -174 -506 -180 -24 -4 -29 2 -68 83 -35
72 -89 161 -158 259 -8 11 14 37 95 113 116 108 312 280 320 280 3 0 35 -62
72 -137z m-172 80 c-71 -59 -148 -129 -242 -218 -49 -46 -92 -84 -96 -84 -10
0 -106 110 -100 115 3 3 255 125 418 202 65 31 71 27 20 -15z m2059 -121 c2
-83 -8 -181 -18 -181 -4 0 -8 6 -8 13 0 6 -4 44 -9 82 -9 77 -9 126 -1 165 3
14 6 34 7 45 4 46 27 -54 29 -124z m-2835 107 c36 -12 40 -18 60 -83 l22 -70
-19 -65 c-35 -117 -36 -118 -110 -164 -39 -25 -74 -43 -78 -41 -11 8 -31 195
-34 324 l-3 124 61 -6 c34 -3 79 -11 101 -19z m-183 -85 c0 -110 4 -158 24
-310 7 -49 5 -54 -22 -77 -15 -14 -33 -26 -39 -26 -21 0 -88 163 -129 312
l-23 87 36 36 c39 38 106 75 135 75 15 0 17 -12 18 -97z m2443 50 c-8 -27 -16
-52 -18 -58 -2 -5 -11 6 -19 25 -16 34 -16 35 11 57 15 13 30 23 34 23 3 0 0
-21 -8 -47z m-264 -84 c0 -6 -338 -172 -435 -213 -33 -14 -52 -20 -43 -13 52
41 265 235 327 299 l46 47 52 -57 c29 -31 53 -60 53 -63z m-2459 -8 c8 -48 7
-83 -2 -135 l-13 -71 -12 42 c-16 53 -16 215 -1 257 l12 31 3 -30 c1 -16 7
-59 13 -94z m561 87 c14 -11 15 -18 5 -42 l-12 -28 -11 41 c-12 43 -8 49 18
29z m2112 -62 c17 -52 17 -56 -1 -95 l-18 -41 -70 52 c-38 29 -69 58 -68 63 2
11 112 75 129 75 6 0 19 -24 28 -54z m-1966 -33 c23 -19 40 -38 37 -43 -3 -5
-35 -24 -70 -43 l-65 -34 -19 53 c-19 49 -19 56 -5 98 l16 46 31 -22 c18 -12
51 -37 75 -55z m1911 -99 c17 -10 31 -21 31 -25 0 -17 -76 -183 -136 -299 -70
-135 -247 -408 -269 -417 -17 -6 -162 84 -181 112 -7 11 -16 38 -20 59 -14 94
-32 163 -75 290 -22 65 -38 119 -37 120 12 6 72 34 183 84 72 32 184 86 249
119 l120 60 52 -42 c28 -24 66 -51 83 -61z m-2533 43 c12 -58 56 -181 90 -254
19 -40 34 -76 34 -81 0 -4 -14 -18 -30 -30 l-30 -23 -11 28 c-34 90 -75 225
-85 283 -3 14 -7 31 -9 39 -7 17 16 82 26 75 4 -2 11 -19 15 -37z m3148 6 c10
-48 16 -175 10 -198 -9 -36 -20 -31 -22 13 -3 44 -10 106 -18 144 -3 15 0 36
6 48 13 24 19 22 24 -7z m-2354 -127 c0 -6 -38 -49 -83 -94 l-84 -83 -33 73
c-18 40 -39 88 -46 105 l-14 32 77 46 78 46 53 -57 c28 -32 52 -62 52 -68z
m-291 42 c1 -5 -4 -8 -11 -8 -6 0 -20 -7 -30 -17 -17 -15 -18 -15 -18 6 0 12
7 38 16 59 l16 37 13 -35 c8 -19 14 -38 14 -42z m2137 5 c-7 -7 -47 17 -43 25
2 4 7 16 11 27 7 18 9 16 22 -14 8 -19 12 -36 10 -38z m458 -23 c19 -182 19
-172 -15 -220 -50 -72 -223 -229 -236 -216 -3 2 0 28 6 58 17 78 18 87 26 158
5 36 9 74 11 85 1 11 3 35 3 53 1 18 7 34 14 36 61 18 111 42 143 70 22 19 40
33 40 33 1 -1 4 -27 8 -57z m-476 4 c18 -8 32 -20 32 -25 0 -16 1 -18 15 -59
8 -22 14 -43 14 -45 -1 -3 4 -38 11 -78 6 -39 13 -83 16 -97 2 -14 6 -68 10
-121 l5 -95 -38 -25 c-21 -14 -78 -42 -128 -63 -49 -21 -104 -44 -121 -51 -17
-7 -77 -27 -134 -44 -77 -23 -106 -28 -116 -20 -11 9 -9 18 15 48 122 157 310
495 374 674 8 21 7 21 45 1z m-2653 -100 c14 -49 32 -107 40 -129 l15 -40 -21
25 c-34 40 -70 106 -71 132 -2 46 2 111 7 107 2 -3 16 -45 30 -95z m593 -15
l49 -106 -39 -44 c-43 -48 -150 -178 -185 -225 l-21 -29 4 65 c7 130 50 393
66 404 18 13 73 44 74 43 1 -1 24 -50 52 -108z m2252 62 l55 -6 -3 -45 c-5
-72 -32 -250 -48 -316 -10 -38 -23 -65 -36 -73 -11 -7 -22 -11 -23 -9 -2 2 -6
33 -10 68 -12 136 -24 217 -49 323 -9 38 -16 72 -16 77 0 5 17 4 38 -2 20 -6
62 -14 92 -17z m-1840 -244 c34 -67 46 -99 37 -102 -18 -6 -177 -51 -207 -58
-24 -6 -30 1 -78 81 -28 48 -59 102 -68 121 l-17 33 89 89 88 88 53 -77 c30
-42 76 -121 103 -175z m-594 136 c-9 -43 -19 -103 -22 -133 -4 -30 -8 -62 -10
-70 -1 -8 -3 -37 -4 -65 l-1 -50 -20 55 c-26 74 -72 250 -66 256 12 13 132 91
135 88 2 -1 -3 -38 -12 -81z m1487 -75 c43 -133 80 -283 75 -306 -3 -12 -46
25 -147 125 -78 79 -141 147 -139 153 3 10 159 139 169 140 3 0 22 -51 42
-112z m-126 74 c-10 -10 -37 -33 -61 -50 -37 -27 -46 -30 -56 -17 -13 15 -6
35 13 35 7 0 35 11 62 24 62 30 62 30 42 8z m1418 -58 c-8 -72 -24 -156 -31
-163 -3 -3 -3 10 0 29 3 19 8 66 11 104 3 38 8 73 11 78 12 19 15 5 9 -48z
m-2869 -192 c9 -24 14 -45 12 -47 -5 -5 -96 132 -123 184 l-17 35 33 27 34 27
22 -91 c12 -51 30 -111 39 -135z m-265 92 c10 -12 -41 -88 -52 -77 -4 5 -11
23 -14 42 -3 19 -7 37 -9 40 -2 3 -7 31 -11 61 l-7 54 43 -54 c23 -30 46 -60
50 -66z m1567 37 c-69 -54 -263 -194 -368 -265 l-110 -74 -11 41 c-6 23 -13
52 -15 65 -3 13 -12 41 -21 63 -8 22 -12 43 -8 47 3 4 82 32 173 63 92 31 210
73 262 92 l95 35 18 -21 c18 -20 17 -21 -15 -46z m-902 -79 c35 -58 62 -107
61 -108 -5 -5 -239 -54 -282 -59 -27 -4 -59 -9 -69 -12 -18 -5 -18 -3 3 32 30
51 212 267 219 260 3 -3 34 -54 68 -113z m2419 61 c-12 -110 -21 -153 -56
-260 -17 -52 -31 -72 -89 -127 -73 -68 -95 -82 -180 -116 l-53 -21 6 37 c3 20
27 95 53 168 l46 131 72 53 c40 29 101 83 137 122 35 38 65 69 67 69 2 1 0
-25 -3 -56z m-2940 -10 c15 -27 50 -82 78 -123 47 -69 48 -73 21 -56 -45 29
-146 111 -174 140 l-24 27 34 29 c19 17 36 30 37 30 0 0 13 -21 28 -47z m1495
4 c32 -42 193 -203 247 -247 l43 -35 6 -96 c5 -78 4 -96 -7 -96 -8 -1 -32 -4
-54 -7 -99 -15 -224 -21 -405 -21 -162 1 -347 11 -358 20 -1 1 -5 22 -8 46 -3
24 -7 58 -9 74 -3 28 3 34 113 108 64 43 180 125 257 182 77 57 142 104 145
104 3 1 16 -14 30 -32z m-1558 -148 c53 -111 53 -111 -38 -88 -64 16 -92 76
-63 132 14 27 40 57 48 56 3 0 27 -45 53 -100z m146 -54 c34 -21 61 -39 60
-41 -2 -1 -31 -4 -65 -6 l-62 -4 -33 70 c-18 39 -35 75 -37 81 -2 5 14 -6 35
-26 22 -19 68 -53 102 -74z m805 13 c44 -144 46 -131 -30 -177 l-68 -41 -20
27 c-55 73 -145 199 -145 204 0 5 202 66 226 68 7 1 23 -36 37 -81z m-209
-110 c94 -131 96 -144 21 -133 -108 16 -527 180 -463 182 33 1 261 46 313 62
17 5 33 10 36 10 4 1 45 -54 93 -121z m1927 31 l-20 -54 0 44 c-1 31 4 48 16
57 10 7 19 11 20 10 2 -1 -6 -27 -16 -57z m-48 -52 c-6 -85 -10 -100 -34 -150
-28 -57 -42 -62 -149 -54 -69 6 -243 53 -278 76 -9 5 28 22 115 50 70 24 175
66 233 94 58 29 108 48 111 44 4 -5 5 -32 2 -60z m-2594 49 c28 -2 38 -9 58
-47 14 -24 31 -54 39 -67 14 -21 13 -29 -5 -76 -11 -30 -18 -56 -15 -59 3 -3
1 -8 -5 -11 -14 -9 -111 143 -158 247 -12 28 -12 28 20 22 18 -4 47 -7 66 -9z
m175 -33 c-45 -79 -47 -80 -77 -24 -15 27 -24 52 -20 54 5 3 30 5 57 5 26 0
50 3 54 6 15 16 10 2 -14 -41z m41 -68 c3 -38 11 -90 16 -114 5 -24 8 -45 6
-47 -3 -4 -48 58 -89 121 -6 10 49 121 57 113 1 -1 6 -34 10 -73z m144 40 c52
-25 225 -86 315 -110 32 -9 57 -18 55 -20 -13 -11 -170 -85 -182 -85 -9 0 -73
56 -144 125 -127 124 -131 131 -44 90z m1627 -101 c-20 -18 -122 -43 -131 -32
-1 2 -5 40 -8 84 l-5 81 84 -56 84 -56 -24 -21z m-1701 17 c24 -49 58 -111 75
-137 16 -26 30 -51 30 -55 0 -10 -77 -27 -90 -19 -12 8 -37 91 -46 160 -3 25
-10 66 -14 93 -4 26 -5 47 -4 47 2 0 24 -40 49 -89z m194 -113 l43 -38 -26
-10 c-70 -26 -73 -25 -109 32 -33 51 -107 189 -107 199 0 3 35 -29 78 -71 42
-41 97 -92 121 -112z m494 104 l6 -53 -52 6 c-32 4 -59 14 -71 27 -21 23 -22
22 46 63 60 36 63 34 71 -43z m1841 -39 c-61 -107 -156 -208 -275 -296 l-41
-30 18 34 c9 19 32 74 49 123 l32 89 56 17 c56 18 144 68 167 96 24 28 21 13
-6 -33z m-2621 -65 c35 -51 67 -99 71 -105 5 -10 -7 -13 -48 -13 -51 0 -59 3
-90 36 -27 29 -33 42 -30 67 4 33 25 107 30 107 1 0 31 -42 67 -92z m634 86
c-3 -3 -12 -4 -19 -1 -8 3 -5 6 6 6 11 1 17 -2 13 -5z m1332 -39 c112 -44 204
-65 292 -66 l70 -1 -27 -46 c-42 -74 -129 -191 -192 -259 -64 -70 -90 -82
-243 -113 -99 -20 -319 -38 -319 -26 0 4 9 24 20 46 29 58 68 178 75 235 10
78 13 85 88 167 50 55 80 79 106 86 20 6 38 10 40 11 2 1 42 -15 90 -34z
m-1271 -38 c24 -23 53 -55 64 -70 l20 -28 -21 -67 c-35 -114 -28 -113 -167
-30 -126 77 -215 137 -213 147 0 3 42 27 92 53 81 42 97 47 137 42 35 -4 54
-15 88 -47z m1036 10 c-16 -17 -39 -43 -52 -56 l-23 -25 4 50 c3 45 6 49 33
54 67 13 69 11 38 -23z m-971 9 c28 -7 28 -9 18 -65 -2 -8 -71 62 -71 71 0 4
6 6 13 4 6 -3 25 -7 40 -10z m880 -54 c-3 -56 -5 -58 -71 -122 -116 -112 -300
-250 -334 -250 -37 0 -258 161 -380 278 -50 48 -57 59 -53 86 2 17 4 37 4 44
1 10 12 12 46 8 25 -3 64 -8 88 -11 109 -14 516 -5 622 14 86 15 82 17 78 -47z
m708 -68 c-12 -37 -38 -97 -57 -134 -34 -61 -42 -70 -102 -99 -49 -24 -62 -28
-51 -14 8 10 37 45 64 78 28 34 75 102 105 152 30 50 56 89 58 88 2 -2 -6 -33
-17 -71z m-1932 -7 c55 -40 250 -161 273 -170 19 -7 -34 -60 -85 -84 -87 -42
-88 -42 -175 45 -44 44 -103 110 -131 148 l-53 69 49 21 c26 12 53 19 58 16 6
-3 34 -24 64 -45z m-142 -74 c33 -43 91 -109 129 -147 l68 -69 -49 6 c-48 6
-55 12 -167 127 -65 65 -118 123 -118 128 0 6 38 23 71 31 3 0 33 -34 66 -76z
m653 -39 c52 -44 134 -107 183 -139 78 -52 108 -81 75 -71 -7 2 -35 9 -63 16
-80 19 -224 70 -308 108 -60 27 -76 39 -71 51 9 24 46 124 51 141 4 12 8 11
21 -5 9 -11 60 -57 112 -101z m690 9 c-17 -81 -53 -176 -86 -228 -21 -33 -20
-33 -141 -21 -65 7 -107 19 -116 33 -3 5 36 37 86 71 93 63 119 84 215 173 29
27 55 49 56 49 2 0 -5 -35 -14 -77z m-1521 40 c5 -16 19 -47 30 -71 l20 -43
-27 19 c-15 11 -49 39 -76 63 -52 46 -50 52 14 57 22 2 30 -3 39 -25z m207
-190 c-2 -2 -24 6 -49 17 -36 16 -53 33 -81 79 -20 32 -36 62 -36 67 0 5 38
-29 84 -76 47 -47 83 -86 82 -87z m440 58 c17 -15 207 -89 307 -118 77 -23 95
-32 85 -41 -28 -23 -203 -83 -281 -96 -98 -17 -115 -11 -265 98 l-53 39 59 29
c33 15 73 44 89 62 29 36 42 42 59 27z m-551 -41 c3 -6 -1 -7 -9 -4 -18 7 -21
14 -7 14 6 0 13 -4 16 -10z m1962 -67 c-46 -44 -214 -139 -226 -127 -3 3 0 8
7 13 6 4 39 29 72 56 47 40 163 103 190 105 3 0 -17 -21 -43 -47z m-1734 -46
c29 -23 69 -53 90 -65 20 -13 37 -25 37 -28 0 -2 -30 7 -66 20 -71 26 -152 77
-197 124 l-28 29 56 -19 c31 -10 79 -38 108 -61z m92 23 c3 -5 43 -35 88 -66
107 -75 109 -77 66 -71 -36 4 -114 49 -198 113 l-44 34 41 0 c22 0 43 -4 47
-10z m1475 -14 c0 -2 -34 -27 -77 -56 -75 -53 -77 -53 -152 -54 -138 0 -265
24 -243 46 5 5 51 12 101 14 51 2 110 6 131 9 97 13 118 16 170 29 65 16 70
17 70 12z m-613 -58 l82 -31 -22 -27 c-50 -62 -209 -130 -292 -125 -80 5 -315
75 -315 95 0 3 29 11 66 18 66 13 261 85 279 103 16 17 113 1 202 -33z m114
-1 c-6 -6 -21 -5 -38 1 -28 11 -28 11 9 9 23 0 34 -5 29 -10z m140 -73 c30 -4
69 -8 87 -8 56 -2 29 -20 -85 -59 -122 -41 -137 -44 -273 -52 l-95 -6 64 33
c36 18 87 54 115 79 l50 46 42 -13 c23 -7 66 -16 95 -20z m-822 -38 c19 -10
61 -29 95 -42 34 -12 54 -23 45 -24 -24 0 -204 59 -226 75 -16 12 -14 13 17
11 19 -2 50 -11 69 -20z"/>
<path d="M4199 4126 c-2 -2 -31 -7 -64 -11 -32 -3 -62 -8 -65 -10 -3 -2 -27
-6 -55 -10 -177 -23 -290 -43 -287 -51 2 -5 28 -37 58 -71 47 -52 59 -61 77
-54 44 15 60 4 147 -94 l88 -99 -14 -40 c-14 -39 -14 -40 14 -70 58 -62 86
-97 88 -111 5 -33 60 -155 70 -155 6 0 43 13 82 29 l71 29 36 -85 c56 -134 57
-124 -30 -157 -41 -16 -75 -34 -74 -40 0 -6 13 -42 29 -81 21 -53 33 -70 47
-69 20 2 364 141 375 152 6 6 -44 146 -58 161 -3 4 -31 -6 -111 -37 l-51 -21
-37 92 c-21 51 -39 98 -42 105 -3 7 10 18 33 28 22 9 58 24 81 34 l42 18 -31
74 c-16 40 -34 77 -38 81 -4 5 -70 -17 -146 -48 -77 -32 -161 -66 -187 -76
l-49 -19 7 32 c4 18 13 51 20 73 7 22 34 115 60 206 54 188 55 169 -24 254
-40 42 -52 50 -62 41z m-19 -152 c0 -4 -10 -34 -21 -69 l-22 -62 -36 41 c-20
23 -39 43 -43 44 -23 10 -2 31 40 40 59 12 82 14 82 6z"/>
<path d="M4558 2942 l-128 -3 0 -89 0 -89 133 -3 132 -3 -130 -78 -130 -77 0
-68 -1 -69 128 -73 c70 -40 128 -76 128 -79 0 -4 -54 -7 -120 -7 -66 -1 -123
-4 -127 -7 -5 -5 -7 -125 -4 -170 1 -4 97 -6 214 -4 l212 3 3 106 3 106 -133
82 c-73 45 -143 89 -156 97 -23 14 -19 17 125 110 81 53 150 98 152 100 6 5 1
206 -5 213 -6 6 -104 6 -296 2z"/>
<path d="M370 2283 c-37 -7 -211 -51 -215 -55 -8 -9 39 -168 50 -168 7 0 61
11 119 25 58 14 117 25 130 25 74 0 109 -128 46 -168 -11 -7 -72 -25 -136 -41
-64 -16 -118 -32 -120 -34 -5 -5 31 -166 38 -172 2 -1 60 12 130 30 139 35
197 65 225 117 27 49 23 183 -6 267 -51 147 -127 197 -261 174z"/>
<path d="M4400 2087 c0 -2 -38 -111 -85 -241 -47 -131 -85 -239 -85 -241 0 -6
93 -35 98 -30 2 2 29 70 58 151 30 81 56 149 58 151 8 8 56 -10 56 -21 0 -6
-18 -60 -40 -120 -22 -61 -40 -113 -40 -117 0 -7 54 -29 70 -29 4 0 26 54 50
120 23 66 46 120 50 120 5 0 20 -4 35 -10 22 -8 24 -13 15 -30 -6 -12 -17 -40
-25 -63 -7 -23 -26 -79 -43 -125 l-31 -84 32 -13 c71 -29 63 -39 148 195 43
118 80 222 82 231 4 14 -32 30 -193 88 -194 69 -210 75 -210 68z"/>
<path d="M502 1654 c-95 -64 -172 -122 -171 -128 0 -6 26 -47 58 -91 l57 -80
134 3 c74 2 154 5 178 6 23 1 42 -1 42 -6 0 -5 -29 -75 -65 -156 -35 -81 -65
-153 -67 -159 -3 -14 103 -183 115 -183 5 0 86 53 182 117 l173 117 -49 73
c-27 40 -53 73 -57 73 -4 -1 -52 -32 -107 -70 -55 -38 -101 -67 -103 -65 -2 2
25 63 61 137 72 148 71 134 10 216 l-24 32 -87 -5 c-48 -3 -118 -8 -157 -11
l-70 -5 95 65 c52 35 103 70 113 77 16 13 14 19 -30 86 -27 40 -51 73 -54 73
-3 0 -83 -52 -177 -116z"/>
<path d="M4110 1436 c-144 -192 -174 -255 -171 -354 2 -69 139 -174 216 -167
85 8 149 64 307 272 l107 140 -173 130 -172 131 -114 -152z m181 -127 c55 -41
77 -64 72 -73 -23 -39 -82 -107 -109 -125 -38 -26 -70 -27 -112 -1 -44 27 -56
57 -43 106 11 39 88 154 104 154 4 0 44 -27 88 -61z"/>
<path d="M1588 632 l-47 -3 0 -100 0 -99 124 0 125 0 -2 25 c-2 24 -4 25 -80
25 -63 0 -78 3 -78 15 0 12 13 15 60 15 53 0 60 2 60 20 0 18 -7 20 -60 20
-47 0 -60 3 -60 15 0 8 8 15 18 16 9 0 42 1 72 2 50 2 55 4 56 25 1 12 -4 22
-10 23 -39 3 -138 4 -178 1z"/>
<path d="M1870 628 c-60 -23 -80 -75 -37 -102 18 -12 71 -23 122 -25 5 -1 4
-6 -2 -12 -7 -7 -22 -9 -40 -4 -39 12 -75 13 -92 5 -21 -11 31 -60 66 -62 97
-5 146 12 162 55 18 47 -25 74 -123 76 -22 1 -27 4 -19 12 8 8 28 8 67 2 72
-13 90 -2 55 33 -21 20 -38 26 -80 29 -30 1 -65 -2 -79 -7z"/>
<path d="M2093 630 c-10 -3 -18 -14 -18 -25 0 -16 7 -20 38 -20 20 0 38 -4 38
-10 1 -5 3 -35 4 -65 1 -30 3 -61 4 -67 0 -8 16 -13 41 -13 l40 0 0 75 0 75
40 0 c36 0 40 3 40 25 0 14 -6 25 -12 26 -69 3 -201 3 -215 -1z"/>
<path d="M2462 624 c-17 -7 -36 -22 -42 -35 l-12 -22 75 6 c83 7 111 -5 50
-22 -21 -6 -45 -11 -54 -11 -33 0 -69 -40 -69 -76 l0 -34 120 0 120 0 0 25 c0
24 -2 25 -72 25 -82 0 -84 6 -7 20 29 6 63 19 73 30 19 19 19 21 3 54 -12 27
-25 37 -54 45 -49 13 -93 11 -131 -5z"/>
<path d="M2755 631 c-52 -15 -75 -48 -75 -106 0 -40 43 -94 77 -96 43 -3 90 2
114 12 64 26 72 135 13 174 -26 17 -96 26 -129 16z m73 -63 c7 -7 12 -24 12
-39 0 -52 -57 -67 -70 -19 -14 52 25 91 58 58z"/>
<path d="M2998 623 c-35 -14 -53 -36 -43 -52 2 -5 30 -4 61 1 32 5 64 6 71 3
18 -6 7 -25 -15 -25 -27 0 -86 -19 -105 -32 -19 -14 -29 -51 -20 -73 4 -12 29
-15 123 -15 115 0 117 0 116 23 -1 20 -7 22 -76 27 -72 5 -73 5 -32 13 24 4
60 14 79 22 30 13 34 18 31 46 -4 43 -43 70 -104 74 -27 2 -65 -3 -86 -12z"/>
<path d="M3370 632 c-14 -2 -55 -25 -93 -52 -52 -39 -67 -56 -67 -75 0 -24 2
-25 70 -25 68 0 70 -1 70 -25 0 -23 4 -25 46 -25 42 0 46 2 41 21 -4 15 0 23
14 26 23 6 27 53 4 53 -15 0 -18 12 -15 66 1 34 -16 43 -70 36z m-20 -82 c0
-15 -7 -20 -26 -20 l-26 0 23 20 c30 24 29 24 29 0z"/>
</g>
</svg>
